<svg width="20" height="20" viewBox="0 0 20 20" fill="none" xmlns="http://www.w3.org/2000/svg">
<path d="M11.2162 20C5.03169 20 0 15.5083 0 9.98932C0 4.63231 4.70106 0.245019 10.7012 0.00128069C10.9092 -0.0126472 11.0728 0.08833 11.1606 0.240666C11.2465 0.393873 11.223 0.579288 11.1011 0.712474C9.6023 2.34117 8.77913 4.39901 8.77913 6.50735C8.77913 11.5473 13.3719 15.6475 19.02 15.6475C19.1156 15.6475 19.209 15.6406 19.3038 15.6353L19.4892 15.6247C19.6696 15.6179 19.8605 15.7117 19.9476 15.8643C20.0353 16.0184 20.0112 16.2029 19.8881 16.335C17.7467 18.664 14.5862 20 11.2162 20Z" fill="#171C26"/>
</svg>
