<svg width="20" height="20" viewBox="0 0 20 20" fill="none" xmlns="http://www.w3.org/2000/svg">
<path d="M10 5C12.7615 5 15 7.23846 15 10C15 12.7615 12.7615 15 10 15C7.23846 15 5 12.7615 5 10C5 7.23846 7.23846 5 10 5ZM10.7692 0.769231C10.7692 0.91 10.7692 2.93615 10.7692 3.07692C10.7692 3.50192 10.425 3.84615 10 3.84615C9.575 3.84615 9.23077 3.50192 9.23077 3.07692C9.23077 2.93615 9.23077 0.91 9.23077 0.769231C9.23077 0.344231 9.575 0 10 0C10.425 0 10.7692 0.344231 10.7692 0.769231ZM17.0712 4.01692C16.9715 4.11654 15.5388 5.54923 15.4392 5.64885C15.1388 5.94923 14.6519 5.94923 14.3515 5.64885C14.0512 5.34846 14.0512 4.86154 14.3515 4.56115C14.4512 4.46154 15.8838 3.02885 15.9835 2.92923C16.2838 2.62885 16.7708 2.62885 17.0712 2.92923C17.3715 3.22962 17.3715 3.71654 17.0712 4.01692ZM19.2308 10.7692C19.09 10.7692 17.0638 10.7692 16.9231 10.7692C16.4981 10.7692 16.1538 10.425 16.1538 10C16.1538 9.575 16.4981 9.23077 16.9231 9.23077C17.0638 9.23077 19.09 9.23077 19.2308 9.23077C19.6558 9.23077 20 9.575 20 10C20 10.425 19.6558 10.7692 19.2308 10.7692ZM15.9831 17.0712C15.8835 16.9715 14.4508 15.5388 14.3512 15.4392C14.0508 15.1388 14.0508 14.6519 14.3512 14.3515C14.6515 14.0512 15.1385 14.0512 15.4388 14.3515C15.5385 14.4512 16.9712 15.8838 17.0708 15.9835C17.3712 16.2838 17.3712 16.7708 17.0708 17.0712C16.7704 17.3715 16.2835 17.3715 15.9831 17.0712ZM9.23077 19.2308C9.23077 19.09 9.23077 17.0638 9.23077 16.9231C9.23077 16.4981 9.575 16.1538 10 16.1538C10.425 16.1538 10.7692 16.4981 10.7692 16.9231C10.7692 17.0638 10.7692 19.09 10.7692 19.2308C10.7692 19.6558 10.425 20 10 20C9.575 20 9.23077 19.6558 9.23077 19.2308ZM2.92885 15.9831C3.02846 15.8835 4.46115 14.4508 4.56077 14.3512C4.86115 14.0508 5.34808 14.0508 5.64846 14.3512C5.94885 14.6515 5.94885 15.1385 5.64846 15.4388C5.54885 15.5385 4.11615 16.9712 4.01654 17.0708C3.71615 17.3712 3.22923 17.3712 2.92885 17.0708C2.62846 16.7704 2.62846 16.2835 2.92885 15.9831ZM0.769231 9.23077C0.91 9.23077 2.93615 9.23077 3.07692 9.23077C3.50192 9.23077 3.84615 9.575 3.84615 10C3.84615 10.425 3.50192 10.7692 3.07692 10.7692C2.93615 10.7692 0.91 10.7692 0.769231 10.7692C0.344231 10.7692 0 10.425 0 10C0 9.575 0.344231 9.23077 0.769231 9.23077ZM4.01692 2.92885C4.11654 3.02846 5.54923 4.46115 5.64885 4.56077C5.94923 4.86115 5.94923 5.34808 5.64885 5.64846C5.34846 5.94885 4.86154 5.94885 4.56115 5.64846C4.46154 5.54885 3.02885 4.11615 2.92923 4.01654C2.62885 3.71615 2.62885 3.22923 2.92923 2.92885C3.22962 2.62846 3.71654 2.62846 4.01692 2.92885Z" fill="#171C26"/>
</svg>
